<mxfile host="65bd71144e">
    <diagram id="izr5ojlLVmo8zyCvxxbJ" name="Page-1">
        <mxGraphModel dx="547" dy="427" grid="1" gridSize="10" guides="1" tooltips="1" connect="1" arrows="1" fold="1" page="1" pageScale="1" pageWidth="850" pageHeight="1100" math="1" shadow="0">
            <root>
                <mxCell id="0"/>
                <mxCell id="1" parent="0"/>
                <mxCell id="688" value="" style="endArrow=none;dashed=1;html=1;strokeWidth=2;strokeColor=#B3B3B3;" edge="1" parent="1">
                    <mxGeometry width="50" height="50" relative="1" as="geometry">
                        <mxPoint x="425" y="140" as="sourcePoint"/>
                        <mxPoint x="425" y="40" as="targetPoint"/>
                    </mxGeometry>
                </mxCell>
                <mxCell id="683" value="" style="endArrow=none;dashed=1;html=1;strokeWidth=2;strokeColor=#B3B3B3;" edge="1" parent="1">
                    <mxGeometry width="50" height="50" relative="1" as="geometry">
                        <mxPoint x="220" y="140.00000000000006" as="sourcePoint"/>
                        <mxPoint x="220" y="40" as="targetPoint"/>
                    </mxGeometry>
                </mxCell>
                <mxCell id="684" value="" style="endArrow=none;dashed=1;html=1;strokeWidth=2;" edge="1" parent="1">
                    <mxGeometry width="50" height="50" relative="1" as="geometry">
                        <mxPoint x="260" y="140.00000000000006" as="sourcePoint"/>
                        <mxPoint x="260" y="40" as="targetPoint"/>
                    </mxGeometry>
                </mxCell>
                <mxCell id="685" value="" style="endArrow=none;dashed=1;html=1;strokeWidth=2;" edge="1" parent="1">
                    <mxGeometry width="50" height="50" relative="1" as="geometry">
                        <mxPoint x="300" y="140.00000000000006" as="sourcePoint"/>
                        <mxPoint x="300" y="40" as="targetPoint"/>
                    </mxGeometry>
                </mxCell>
                <mxCell id="499" value="BF16" style="text;html=1;align=center;verticalAlign=middle;resizable=0;points=[];autosize=1;strokeColor=none;fillColor=none;" parent="1" vertex="1">
                    <mxGeometry x="40" y="40" width="50" height="30" as="geometry"/>
                </mxCell>
                <mxCell id="500" style="edgeStyle=orthogonalEdgeStyle;html=1;entryX=0;entryY=0.5;entryDx=0;entryDy=0;fontSize=12;strokeWidth=2;exitX=0.5;exitY=1;exitDx=0;exitDy=0;" parent="1" source="503" target="665" edge="1">
                    <mxGeometry relative="1" as="geometry">
                        <Array as="points">
                            <mxPoint x="130" y="79.95"/>
                            <mxPoint x="130" y="79.95"/>
                        </Array>
                    </mxGeometry>
                </mxCell>
                <mxCell id="503" value="&amp;nbsp;exps [k]" style="shape=offPageConnector;whiteSpace=wrap;html=1;rotation=0;direction=north;labelPosition=center;verticalLabelPosition=middle;align=left;verticalAlign=middle;size=0.16666666666666666;" parent="1" vertex="1">
                    <mxGeometry x="40" y="70" width="80" height="20" as="geometry"/>
                </mxCell>
                <mxCell id="680" style="edgeStyle=orthogonalEdgeStyle;html=1;entryX=0;entryY=0.5;entryDx=0;entryDy=0;strokeColor=#000000;" parent="1" source="506" target="671" edge="1">
                    <mxGeometry relative="1" as="geometry"/>
                </mxCell>
                <mxCell id="506" value="$$\max_{i} (\text{exp}_i)$$" style="rounded=0;whiteSpace=wrap;html=1;aspect=fixed;" parent="1" vertex="1">
                    <mxGeometry x="240" y="60" width="80" height="40" as="geometry"/>
                </mxCell>
                <mxCell id="508" value="&lt;div style=&quot;text-align: left;&quot;&gt;&lt;span style=&quot;background-color: initial;&quot;&gt;e_max&amp;nbsp;&lt;/span&gt;&lt;/div&gt;" style="shape=offPageConnector;whiteSpace=wrap;html=1;rotation=0;direction=south;labelPosition=center;verticalLabelPosition=middle;align=right;verticalAlign=middle;size=0.16666666666666666;" parent="1" vertex="1">
                    <mxGeometry x="440" y="70" width="80" height="20" as="geometry"/>
                </mxCell>
                <mxCell id="513" value="E8M0" style="text;html=1;align=center;verticalAlign=middle;resizable=0;points=[];autosize=1;strokeColor=none;fillColor=none;fontSize=12;" parent="1" vertex="1">
                    <mxGeometry x="470" y="40" width="50" height="30" as="geometry"/>
                </mxCell>
                <mxCell id="664" style="edgeStyle=orthogonalEdgeStyle;html=1;entryX=0;entryY=0.5;entryDx=0;entryDy=0;fontSize=12;strokeWidth=2;exitX=1;exitY=0.5;exitDx=0;exitDy=0;" parent="1" source="665" target="506" edge="1">
                    <mxGeometry relative="1" as="geometry">
                        <Array as="points">
                            <mxPoint x="211" y="80"/>
                            <mxPoint x="211" y="80"/>
                        </Array>
                        <mxPoint x="150" y="170.01500000000004" as="sourcePoint"/>
                        <mxPoint x="270" y="169.98500000000007" as="targetPoint"/>
                    </mxGeometry>
                </mxCell>
                <mxCell id="665" value="Set NaNs to 0" style="rounded=0;whiteSpace=wrap;html=1;strokeWidth=1;strokeColor=#B3B3B3;fillColor=#E6E6E6;" parent="1" vertex="1">
                    <mxGeometry x="151" y="60" width="60" height="40" as="geometry"/>
                </mxCell>
                <mxCell id="674" style="edgeStyle=none;html=1;entryX=0.5;entryY=1;entryDx=0;entryDy=0;strokeColor=#000000;" parent="1" source="671" target="508" edge="1">
                    <mxGeometry relative="1" as="geometry"/>
                </mxCell>
                <mxCell id="671" value="max" style="rounded=0;whiteSpace=wrap;html=1;strokeColor=#B3B3B3;fillColor=#E6E6E6;" parent="1" vertex="1">
                    <mxGeometry x="370" y="70" width="30" height="20" as="geometry"/>
                </mxCell>
                <mxCell id="679" style="edgeStyle=orthogonalEdgeStyle;html=1;entryX=0.5;entryY=1;entryDx=0;entryDy=0;strokeColor=#B3B3B3;" parent="1" source="678" target="671" edge="1">
                    <mxGeometry relative="1" as="geometry"/>
                </mxCell>
                <mxCell id="678" value="min_val" style="rounded=1;whiteSpace=wrap;html=1;strokeColor=#B3B3B3;fillColor=#E6E6E6;" parent="1" vertex="1">
                    <mxGeometry x="360" y="110" width="50" height="20" as="geometry"/>
                </mxCell>
                <mxCell id="682" value="" style="endArrow=none;dashed=1;html=1;strokeWidth=2;" edge="1" parent="1">
                    <mxGeometry width="50" height="50" relative="1" as="geometry">
                        <mxPoint x="130" y="140" as="sourcePoint"/>
                        <mxPoint x="130" y="40" as="targetPoint"/>
                    </mxGeometry>
                </mxCell>
                <mxCell id="686" value="$$\ldots$$" style="text;html=1;align=center;verticalAlign=middle;resizable=0;points=[];autosize=1;strokeColor=none;fillColor=none;" vertex="1" parent="1">
                    <mxGeometry x="240" y="105" width="80" height="30" as="geometry"/>
                </mxCell>
                <mxCell id="687" value="$$\ldots$$" style="text;html=1;align=center;verticalAlign=middle;resizable=0;points=[];autosize=1;strokeColor=none;fillColor=none;" vertex="1" parent="1">
                    <mxGeometry x="240" y="30" width="80" height="30" as="geometry"/>
                </mxCell>
                <mxCell id="690" value="" style="endArrow=none;dashed=1;html=1;strokeWidth=2;" edge="1" parent="1">
                    <mxGeometry width="50" height="50" relative="1" as="geometry">
                        <mxPoint x="330" y="140" as="sourcePoint"/>
                        <mxPoint x="330" y="40" as="targetPoint"/>
                    </mxGeometry>
                </mxCell>
            </root>
        </mxGraphModel>
    </diagram>
</mxfile>